<svg width="321" height="180" viewBox="0 0 321 180" fill="none" xmlns="http://www.w3.org/2000/svg">
<path d="M312.114 69.8518L308.719 78.5559L311.126 79.4987L314.521 70.7945L312.114 69.8518Z" fill="#367CFF"/>
<path d="M100.018 48.5081L98.093 50.2358L104.315 57.1974L106.241 55.4697L100.018 48.5081Z" fill="#0CBC8B"/>
<path d="M128.545 79.6668L121.081 85.2695L122.63 87.3425L130.095 81.7398L128.545 79.6668Z" fill="#367CFF"/>
<path d="M214.882 15.3736L213.111 17.2596L219.903 23.6643L221.674 21.7783L214.882 15.3736Z" fill="#367CFF"/>
<path d="M165.493 17.4562L160.844 25.5585L163.085 26.8492L167.733 18.7469L165.493 17.4562Z" fill="#0CBC8B"/>
<path d="M232.994 86.7441L230.808 88.1262L235.786 96.0296L237.971 94.6475L232.994 86.7441Z" fill="#0CBC8B"/>
<path d="M131.644 125.23L129.332 126.387L133.5 134.747L135.813 133.59L131.644 125.23Z" fill="#0CBC8B"/>
<path d="M97.8182 103.233L95.14 112.184L97.6153 112.928L100.294 103.976L97.8182 103.233Z" fill="#367CFF"/>
<path d="M259.609 131.128L251.863 136.333L253.302 138.484L261.048 133.279L259.609 131.128Z" fill="#367CFF"/>
<path d="M260.769 0.561958L256.121 8.66406L258.361 9.95475L263.01 1.85264L260.769 0.561958Z" fill="#0CBC8B"/>
<path d="M2.40717 66.846L0 67.7888L3.39532 76.493L5.80249 75.5502L2.40717 66.846Z" fill="#0CBC8B"/>
<path d="M252.287 56.0929L250.738 58.1659L258.203 63.7686L259.752 61.6956L252.287 56.0929Z" fill="#0CBC8B"/>
<path d="M42.6059 17.908L35.8134 24.3126L37.5846 26.1986L44.377 19.794L42.6059 17.908Z" fill="#367CFF"/>
<path d="M117.84 10.2812L115.599 11.5719L120.248 19.6742L122.488 18.3835L117.84 10.2812Z" fill="#367CFF"/>
<path d="M26.4487 112.01L21.4713 119.913L23.657 121.295L28.6344 113.392L26.4487 112.01Z" fill="#0CBC8B"/>
<path d="M4.4025 133.66L2.96292 135.812L10.7133 141.017L12.1529 138.865L4.4025 133.66Z" fill="#367CFF"/>
<path d="M303.417 30.4514L301.176 31.7421L305.825 39.8442L308.065 38.5535L303.417 30.4514Z" fill="#367CFF"/>
<path d="M206.312 52.5316L200.09 59.4932L202.015 61.2209L208.237 54.2593L206.312 52.5316Z" fill="#367CFF"/>
<path d="M151.688 131.001L147.519 139.361L149.831 140.518L154 132.158L151.688 131.001Z" fill="#0CBC8B"/>
<path d="M185.515 109.004L183.04 109.747L185.718 118.699L188.193 117.956L185.515 109.004Z" fill="#367CFF"/>
<path d="M186.348 114.112L177.539 107.403C177.346 107.255 177.124 107.15 176.887 107.093C176.651 107.037 176.405 107.03 176.166 107.074C175.927 107.117 175.699 107.21 175.498 107.347C175.297 107.483 175.126 107.661 174.996 107.867C174.77 108.255 174.695 108.714 174.786 109.155C174.878 109.595 175.13 109.986 175.492 110.251L177.381 111.69L169.369 109.898C168.482 109.683 167.256 109.988 167.081 111.001C166.988 111.387 167.029 111.792 167.196 112.152C167.363 112.511 167.646 112.804 168 112.981C167.996 112.989 167.993 112.997 167.991 113.006C167.99 113.012 167.99 113.019 167.991 113.026L166.622 112.694C166.368 112.633 166.105 112.629 165.849 112.683C165.594 112.737 165.354 112.848 165.147 113.006C164.94 113.165 164.771 113.368 164.652 113.6C164.533 113.833 164.467 114.089 164.459 114.35C164.456 114.762 164.593 115.162 164.848 115.484C165.104 115.807 165.462 116.031 165.863 116.12L166.444 116.261C166.448 116.28 166.455 116.298 166.465 116.314C166.05 116.311 165.646 116.455 165.327 116.722C165.009 116.989 164.795 117.361 164.724 117.771C164.66 118.222 164.768 118.681 165.027 119.056C165.286 119.431 165.676 119.694 166.12 119.793L167.567 120.143C167.543 120.153 167.522 120.168 167.505 120.187C167.488 120.207 167.476 120.23 167.47 120.255C167.464 120.285 167.467 120.316 167.478 120.344C167.107 120.444 166.779 120.663 166.545 120.968C166.31 121.272 166.182 121.646 166.18 122.031C166.186 122.435 166.328 122.825 166.583 123.138C166.838 123.452 167.19 123.67 167.584 123.757L179.788 126.711C181.495 127.124 183.287 127.017 184.933 126.403C186.579 125.79 188.005 124.698 189.028 123.267C189.909 122.033 190.276 120.504 190.05 119.003C189.825 117.503 189.024 116.15 187.818 115.231L186.348 114.112Z" fill="#E98862"/>
<g opacity="0.2">
<path opacity="0.2" d="M175.922 114.794C175.912 114.835 175.886 114.871 175.85 114.893C175.814 114.915 175.771 114.922 175.73 114.913L168.112 113.197C168.091 113.193 168.072 113.184 168.054 113.172C168.037 113.16 168.022 113.144 168.011 113.126C168 113.108 167.992 113.088 167.988 113.067C167.985 113.046 167.985 113.025 167.99 113.004C167.995 112.983 168.003 112.964 168.015 112.946C168.028 112.929 168.043 112.914 168.061 112.903C168.079 112.891 168.099 112.884 168.12 112.88C168.141 112.876 168.162 112.877 168.183 112.882L175.801 114.597C175.821 114.602 175.841 114.611 175.858 114.623C175.876 114.635 175.891 114.651 175.902 114.669C175.913 114.687 175.921 114.707 175.925 114.728C175.928 114.749 175.928 114.771 175.923 114.791L175.922 114.794Z" fill="#0C0C0C"/>
</g>
<g opacity="0.2">
<path opacity="0.2" d="M175.26 118.182C175.25 118.223 175.224 118.259 175.188 118.281C175.151 118.303 175.108 118.31 175.066 118.301L166.565 116.388C166.544 116.383 166.524 116.374 166.507 116.362C166.49 116.35 166.475 116.334 166.463 116.316C166.452 116.298 166.444 116.278 166.441 116.257C166.437 116.236 166.438 116.214 166.443 116.193C166.453 116.152 166.479 116.116 166.515 116.094C166.551 116.071 166.595 116.063 166.637 116.071L175.138 117.984C175.159 117.989 175.178 117.998 175.196 118.01C175.213 118.022 175.228 118.038 175.239 118.056C175.251 118.074 175.258 118.094 175.262 118.115C175.266 118.136 175.265 118.158 175.26 118.178V118.182Z" fill="#0C0C0C"/>
</g>
<g opacity="0.2">
<path opacity="0.2" d="M174.565 121.855C174.554 121.896 174.529 121.931 174.493 121.953C174.457 121.976 174.414 121.983 174.372 121.973L167.591 120.447C167.549 120.438 167.513 120.412 167.49 120.376C167.467 120.34 167.459 120.296 167.469 120.254C167.478 120.212 167.504 120.176 167.54 120.153C167.576 120.13 167.62 120.122 167.662 120.131L174.443 121.658C174.464 121.662 174.484 121.671 174.501 121.683C174.518 121.695 174.533 121.711 174.545 121.729C174.556 121.747 174.564 121.767 174.567 121.788C174.571 121.809 174.57 121.831 174.566 121.852L174.565 121.855Z" fill="#0C0C0C"/>
</g>
<path d="M144.527 67.9617L149.445 58.0296C149.553 57.8114 149.705 57.6181 149.892 57.4621C150.079 57.306 150.296 57.1906 150.529 57.1233C150.763 57.0559 151.008 57.038 151.249 57.0708C151.49 57.1036 151.721 57.1862 151.929 57.3136C152.304 57.5604 152.575 57.9382 152.689 58.3737C152.802 58.8091 152.75 59.2713 152.543 59.6706L151.488 61.8003L157.871 56.6295C158.571 56.042 159.805 55.7697 160.41 56.5998C160.664 56.9039 160.808 57.2853 160.818 57.6817C160.828 58.0782 160.703 58.4662 160.464 58.7826C160.472 58.7878 160.478 58.7938 160.484 58.8004C160.488 58.8061 160.491 58.8121 160.494 58.8182L161.573 57.9118C161.773 57.7441 162.008 57.6233 162.26 57.5581C162.513 57.4928 162.776 57.4849 163.032 57.5348C163.288 57.5847 163.53 57.6912 163.74 57.8465C163.949 58.0018 164.122 58.2021 164.244 58.4327C164.43 58.7997 164.485 59.2194 164.398 59.6218C164.312 60.0242 164.091 60.3848 163.772 60.6433L163.312 61.0289C163.317 61.0473 163.319 61.0665 163.317 61.0855C163.688 60.8973 164.113 60.8472 164.517 60.9443C164.921 61.0414 165.277 61.2793 165.522 61.6155C165.78 61.9914 165.886 62.4506 165.82 62.9016C165.754 63.3525 165.521 63.762 165.167 64.0482L164.026 65.0055C164.052 65.0032 164.078 65.0072 164.102 65.017C164.125 65.0268 164.147 65.0421 164.163 65.0618C164.182 65.0863 164.193 65.1156 164.196 65.1463C164.572 65.0703 164.963 65.1205 165.308 65.289C165.654 65.4575 165.934 65.735 166.106 66.0789C166.28 66.4437 166.326 66.8566 166.237 67.2508C166.147 67.6449 165.927 67.9973 165.613 68.2507L155.989 76.3288C154.643 77.459 152.99 78.1605 151.243 78.3434C149.497 78.5263 147.735 78.1822 146.185 77.3554C144.848 76.6425 143.841 75.4355 143.379 73.9909C142.916 72.5462 143.033 70.9777 143.706 69.6185L144.527 67.9617Z" fill="#E98862"/>
<g opacity="0.2">
<path opacity="0.2" d="M154.17 63.9318C154.198 63.9644 154.237 63.9849 154.279 63.9888C154.322 63.9928 154.364 63.9798 154.397 63.9528L160.462 59.0264C160.495 58.9994 160.516 58.9602 160.521 58.9175C160.525 58.8748 160.513 58.8321 160.486 58.7987C160.459 58.7654 160.419 58.7441 160.377 58.7396C160.334 58.7352 160.292 58.7479 160.258 58.7749L154.193 63.7013C154.16 63.7283 154.139 63.7672 154.135 63.8097C154.13 63.8521 154.143 63.8946 154.169 63.9279L154.17 63.9318Z" fill="#0C0C0C"/>
</g>
<g opacity="0.2">
<path opacity="0.2" d="M156.265 66.6723C156.292 66.7049 156.331 66.7253 156.374 66.7292C156.416 66.7331 156.458 66.7201 156.491 66.693L163.26 61.1953C163.293 61.1682 163.314 61.1293 163.318 61.0868C163.323 61.0444 163.31 61.0019 163.283 60.9687C163.256 60.9368 163.217 60.9166 163.175 60.9122C163.133 60.9077 163.091 60.9194 163.057 60.9447L156.286 66.4415C156.253 66.4685 156.232 66.5074 156.228 66.5498C156.223 66.5923 156.236 66.6348 156.262 66.6681L156.265 66.6723Z" fill="#0C0C0C"/>
</g>
<g opacity="0.2">
<path opacity="0.2" d="M158.516 69.6533C158.544 69.6859 158.583 69.7064 158.625 69.7104C158.667 69.7143 158.71 69.7014 158.742 69.6743L164.142 65.2889C164.175 65.2618 164.196 65.2227 164.201 65.18C164.205 65.1372 164.193 65.0945 164.166 65.0612C164.139 65.0278 164.099 65.0066 164.057 65.0021C164.014 64.9976 163.972 65.0103 163.938 65.0374L158.538 69.4228C158.505 69.4498 158.484 69.4887 158.479 69.5312C158.475 69.5736 158.487 69.6161 158.514 69.6494L158.516 69.6533Z" fill="#0C0C0C"/>
</g>
<path d="M34.1482 59.4459C34.1482 59.4459 33.4546 69.8745 31.1133 73.6571C24.3722 84.5497 22.4193 96.8031 29.1698 103.205C35.9202 109.607 78.9767 109.696 82.2387 94.9715C84.9848 82.5746 79.0917 81.2416 77.6576 71.0162C77.0089 66.389 75.224 56.6862 75.224 56.6862" fill="#0A0A0A"/>
<path d="M71.0952 92.8125C71.0209 92.8028 70.1961 106.516 54.2977 105.32C43.2916 104.494 39.3673 92.7924 39.1153 92.7924C40.3019 92.5396 42.3001 92.1722 42.827 91.8902C44.5602 90.9573 46.7038 89.9861 47.2633 86.6136C47.5864 84.6713 47.0388 74.726 47.2071 72.7584L64.1015 76.5382C63.8653 80.6918 62.2132 90.3205 68.0041 92.0246C68.9675 92.3072 70.0055 92.5665 71.0952 92.8125Z" fill="#E98862"/>
<path opacity="0.5" d="M64.3383 88.0902C64.0736 87.2357 63.9032 86.3547 63.8301 85.4629C63.6445 83.428 63.6815 81.3789 63.9406 79.3521C60.507 78.8876 57.2723 77.4674 54.604 75.2528C54.2903 76.4137 52.5648 81.4864 53.0426 82.5896C53.9449 84.6753 58.1877 88.0902 64.3383 88.0902Z" fill="#0C0C0C"/>
<path d="M62.1537 83.8181C55.4928 84.4655 46.8747 81.7942 45.0894 72.9058L43.4786 64.886C41.6934 55.998 44.905 47.8532 53.2565 46.1689C61.6084 44.4856 69.298 50.4307 71.0832 59.319L71.7966 62.8696C72.4815 66.28 74.0377 82.6657 62.1537 83.8181Z" fill="#E98862"/>
<path opacity="0.1" d="M57.9197 72.171C59.0158 72.0399 59.8267 71.2806 59.7307 70.475C59.6348 69.6694 58.6684 69.1225 57.5723 69.2536C56.4762 69.3846 55.6653 70.1439 55.7613 70.9495C55.8572 71.7552 56.8236 72.302 57.9197 72.171Z" fill="#0C0C0C"/>
<path opacity="0.1" d="M69.5021 68.95C69.599 69.7544 70.5666 70.3005 71.6628 70.171C71.8522 70.1483 72.0387 70.1058 72.2194 70.0445C72.2704 69.0853 72.2734 68.1627 72.2456 67.3084C71.9411 67.2321 71.6251 67.2135 71.3138 67.2537C70.2177 67.3832 69.4071 68.1423 69.5021 68.95Z" fill="#0C0C0C"/>
<path opacity="0.5" d="M64.6587 71.4365C64.6641 71.436 64.6695 71.4351 64.6749 71.4339C65.0134 71.3632 65.3477 71.2739 65.6764 71.1662C66.1668 71.0017 66.8071 70.7318 66.7192 70.2873C66.6178 69.781 64.1347 64.596 63.853 64.0071C63.8414 63.9806 63.8247 63.9566 63.8037 63.9367C63.7827 63.9167 63.7579 63.9012 63.7308 63.8911C63.7037 63.881 63.6748 63.8765 63.6459 63.8778C63.617 63.8791 63.5887 63.8863 63.5626 63.8988C63.5365 63.9113 63.5132 63.929 63.4941 63.9508C63.475 63.9726 63.4605 63.998 63.4514 64.0255C63.4423 64.053 63.4389 64.0821 63.4413 64.111C63.4436 64.1399 63.4518 64.168 63.4653 64.1936C64.524 66.4017 66.2291 70.0322 66.2976 70.3731C66.244 70.532 65.4305 70.8425 64.5909 71.0121C64.563 71.0166 64.5363 71.0266 64.5123 71.0414C64.4883 71.0563 64.4674 71.0757 64.4509 71.0986C64.4344 71.1215 64.4226 71.1475 64.4161 71.175C64.4095 71.2025 64.4085 71.231 64.413 71.2589C64.4175 71.2868 64.4274 71.3136 64.4423 71.3377C64.4571 71.3617 64.4765 71.3826 64.4993 71.3992C64.5222 71.4157 64.5481 71.4276 64.5756 71.4341C64.603 71.4406 64.6315 71.4417 64.6593 71.4372L64.6587 71.4365Z" fill="#0C0C0C"/>
<path d="M36.8148 67.7655L44.3021 66.3C49.958 63.93 51.5627 54.053 51.5627 54.053C51.5627 54.053 58.5429 60.7142 75.2253 56.6862C75.2253 56.6862 71.6015 33.3505 46.9684 40.4354C39.0258 42.7193 33.3997 50.8317 34.2364 61.5766C34.8228 69.1044 36.8148 67.7655 36.8148 67.7655Z" fill="#0A0A0A"/>
<path d="M46.152 75.5092C43.614 76.021 41.0101 73.7151 40.4984 71.1713C39.9866 68.6275 41.7635 66.8108 44.3015 66.2987L45.9517 67.7393L48.3337 75.0686L46.152 75.5092Z" fill="#E98862"/>
<path d="M65.6522 59.8722C66.2873 59.4223 67.0298 59.1489 67.8045 59.0798C68.1938 59.0424 68.5864 59.0642 68.9692 59.1445C69.3551 59.2233 69.7297 59.3504 70.0841 59.5226L70.095 59.5278C70.1343 59.5452 70.1788 59.5465 70.219 59.5314C70.2592 59.5163 70.292 59.4861 70.3102 59.4472C70.3285 59.4082 70.3309 59.3637 70.3168 59.323C70.3027 59.2824 70.2733 59.2489 70.2349 59.2297C69.8594 59.031 69.4604 58.8805 69.0473 58.7816C68.6314 58.6803 68.2027 58.6422 67.7754 58.6687C66.9101 58.7166 66.0734 58.996 65.3524 59.478C65.3256 59.4962 65.3025 59.5196 65.2847 59.5467C65.2668 59.5739 65.2545 59.6044 65.2484 59.6363C65.2423 59.6683 65.2426 59.7011 65.2492 59.733C65.2558 59.7648 65.2686 59.795 65.2868 59.8219C65.3051 59.8488 65.3285 59.8718 65.3556 59.8897C65.3828 59.9075 65.4132 59.9198 65.4451 59.9258C65.477 59.9318 65.5098 59.9315 65.5416 59.9248C65.5733 59.9181 65.6035 59.9052 65.6303 59.8868L65.6361 59.8829L65.6522 59.8722Z" fill="#0C0C0C"/>
<path d="M58.8126 60.8194C57.9623 60.6499 57.0823 60.7121 56.2642 60.9997C55.8599 61.1392 55.4787 61.3388 55.1335 61.5918C54.7896 61.8415 54.4785 62.1336 54.2076 62.4613C54.1802 62.4939 54.1665 62.5358 54.1693 62.5783C54.1721 62.6208 54.1913 62.6605 54.2227 62.6892C54.2541 62.7179 54.2954 62.7332 54.3378 62.7321C54.3803 62.7309 54.4207 62.7134 54.4505 62.683L54.4593 62.674C54.7207 62.3789 55.0181 62.1178 55.3445 61.897C55.6674 61.6763 56.0219 61.5057 56.3957 61.3911C57.1378 61.1575 57.9283 61.1251 58.6869 61.2972L58.7056 61.302C58.7693 61.3175 58.8365 61.307 58.8924 61.2728C58.9483 61.2386 58.9884 61.1836 59.0038 61.1198C59.0193 61.056 59.0088 60.9887 58.9746 60.9326C58.9405 60.8766 58.8856 60.8364 58.8219 60.821L58.8126 60.8194Z" fill="#0C0C0C"/>
<path d="M44.3073 66.1764C49.3403 64.2988 51.0106 60.8163 51.5249 58.2246C51.8578 56.4961 51.8266 54.717 51.4335 53.0013L51.2778 53.0444C51.665 54.7377 51.695 56.4934 51.3656 58.199C50.8578 60.7483 49.2114 64.1752 44.2508 66.0252L44.3073 66.1764Z" fill="#0C0C0C"/>
<path d="M84.0433 94.4438L131.833 110.451L117.802 116.7L141.632 67.715L161.107 76.8095L138.998 126.598C137.879 129.115 135.895 131.146 133.406 132.318C130.917 133.49 128.09 133.726 125.442 132.982L124.966 132.847L76.4529 119.199L84.0433 94.4438Z" fill="#367CFF"/>
<path d="M54.0012 101.892C42.9873 101.372 42.5237 92.005 42.5237 92.005C42.5237 92.005 37.0665 92.3585 33.4388 92.8502C27.4995 93.6553 23.5814 95.6734 20.4632 98.7976C17.5627 101.704 15.7968 104.849 17.6654 124.925C19.0184 139.462 18.0664 171.437 18.0664 171.437H85.1831C85.1831 171.437 89.8698 125.242 90.4255 118.7C91.4858 106.208 94.4816 103.45 88.4118 97.0149C84.0101 92.3482 72.6463 92.005 68.0723 92.0057C67.9977 92.0057 69.0005 102.601 54.0012 101.892Z" fill="#367CFF"/>
<path d="M66.8915 73.1885C64.7273 74.2912 62.2582 74.6398 59.8742 74.1794C59.7916 74.1639 59.7064 74.1723 59.6284 74.2035C59.5504 74.2347 59.4829 74.2875 59.4338 74.3557C59.3846 74.424 59.3559 74.5048 59.3508 74.5888C59.3458 74.6728 59.3647 74.7565 59.4054 74.8301C60.1161 76.0848 61.8019 78.2292 64.694 77.3551C66.5613 76.7905 67.2672 74.8657 67.5289 73.6747C67.5468 73.5924 67.5408 73.5066 67.5117 73.4275C67.4827 73.3484 67.4317 73.2792 67.3647 73.2282C67.2978 73.1771 67.2177 73.1463 67.1339 73.1392C67.05 73.1322 66.9659 73.1493 66.8915 73.1885Z" fill="white"/>
<path d="M67.0269 63.544C67.6044 63.544 68.0726 63.0749 68.0726 62.4961C68.0726 61.9174 67.6044 61.4482 67.0269 61.4482C66.4493 61.4482 65.9811 61.9174 65.9811 62.4961C65.9811 63.0749 66.4493 63.544 67.0269 63.544Z" fill="#0C0C0C"/>
<path d="M56.9783 65.307C57.5558 65.307 58.024 64.8378 58.024 64.2591C58.024 63.6803 57.5558 63.2112 56.9783 63.2112C56.4007 63.2112 55.9325 63.6803 55.9325 64.2591C55.9325 64.8378 56.4007 65.307 56.9783 65.307Z" fill="#0C0C0C"/>
<path d="M90.2762 123.251C90.2695 123.251 90.2627 123.251 90.2559 123.251C90.2135 123.246 90.1749 123.224 90.1486 123.19C90.1223 123.156 90.1105 123.113 90.1157 123.071L91.155 114.629C91.1572 114.607 91.1637 114.587 91.174 114.568C91.1843 114.55 91.1983 114.533 91.2151 114.52C91.2319 114.507 91.2512 114.497 91.2718 114.492C91.2924 114.486 91.3138 114.485 91.3349 114.488C91.356 114.491 91.3763 114.498 91.3948 114.508C91.4133 114.518 91.4295 114.533 91.4426 114.549C91.4556 114.566 91.4652 114.585 91.4709 114.606C91.4765 114.626 91.4781 114.648 91.4755 114.669L90.4362 123.11C90.431 123.149 90.4119 123.185 90.3825 123.211C90.3531 123.237 90.3154 123.251 90.2762 123.251Z" fill="#0C0C0C"/>
<path d="M260.165 58.1113C260.165 58.1113 256.161 53.6061 256.626 45.169C256.985 38.6363 262.014 43.9194 262.014 43.9194C262.014 43.9194 262.319 39.218 265.557 40.3375C268.795 41.4569 269.705 46.6409 269.705 46.6409" fill="#0C0C0C"/>
<path d="M282.665 44.3116C282.665 44.3116 298.835 49.3872 288.399 70.63L286.918 70.4358L283.91 70.0425" fill="#0C0C0C"/>
<path d="M259.661 92.7782C259.735 92.7684 260.557 106.436 276.403 105.245C287.372 104.421 291.284 92.7591 291.535 92.7591C290.352 92.5069 288.361 92.1407 287.835 91.8598C286.108 90.9297 283.971 89.9621 283.414 86.6009C283.093 84.6635 283.638 74.7528 283.47 72.7924L266.631 76.5582C266.867 80.6979 268.514 90.2949 262.742 91.9935C261.781 92.2744 260.746 92.5328 259.661 92.7782Z" fill="#E98862"/>
<path opacity="0.52" d="M266.396 88.0719C266.659 87.22 266.829 86.3418 266.902 85.453C267.087 83.4248 267.05 81.3824 266.792 79.3622C270.214 78.8994 273.439 77.484 276.099 75.2769C276.411 76.4338 278.131 81.4897 277.654 82.5894C276.755 84.668 272.525 88.0719 266.396 88.0719Z" fill="#0C0C0C"/>
<path d="M268.415 83.4434C275.046 84.1591 283.663 81.5917 285.539 72.7529L287.231 64.7774C289.105 55.9398 285.994 47.7863 277.688 46.0172C269.383 44.2481 261.655 50.0912 259.78 58.93L259.03 62.4608C258.794 63.6776 258.641 64.9091 258.572 66.1467C258.366 69.4163 258.065 74.3902 259.571 78.0962C260.992 81.5949 264.178 82.9859 268.415 83.4434Z" fill="#E98862"/>
<path d="M263.147 63.0805C263.725 63.0805 264.193 62.6114 264.193 62.0326C264.193 61.4539 263.725 60.9847 263.147 60.9847C262.57 60.9847 262.101 61.4539 262.101 62.0326C262.101 62.6114 262.57 63.0805 263.147 63.0805Z" fill="#0C0C0C"/>
<path d="M273.079 64.1285C273.657 64.1285 274.125 63.6593 274.125 63.0806C274.125 62.5019 273.657 62.0327 273.079 62.0327C272.502 62.0327 272.034 62.5019 272.034 63.0806C272.034 63.6593 272.502 64.1285 273.079 64.1285Z" fill="#0C0C0C"/>
<path d="M284.452 75.3357C286.976 75.8734 289.596 73.6035 290.133 71.0742C290.669 68.545 288.919 66.7147 286.395 66.177L284.735 67.5946L282.282 74.8734L284.452 75.3357Z" fill="#E98862"/>
<path d="M282.747 70.7584C282.747 70.7584 284.387 58.0489 280.747 56.5167C278.324 55.4963 271.479 57.864 266.019 55.6456C263.63 54.6744 261.15 54.8201 260.676 55.9476C260.488 56.394 260.272 49.3971 265.171 45.0981C269.071 41.6751 279.43 42.5579 283.776 44.8039C295.81 51.0222 286.809 66.8333 286.809 66.8333L285.38 71.0416L282.747 70.7584Z" fill="#0C0C0C"/>
<g opacity="0.52">
<path opacity="0.52" d="M265.868 71.668L265.851 71.6654C265.037 71.4941 263.692 71.1151 263.818 70.5062C263.925 70.0008 266.448 64.8349 266.736 64.2477C266.761 64.1972 266.804 64.1585 266.857 64.1403C266.911 64.1221 266.969 64.1258 267.019 64.1506C267.07 64.1753 267.108 64.2192 267.126 64.2724C267.144 64.3256 267.141 64.3839 267.116 64.4345C265.997 66.7219 264.305 70.2498 264.233 70.5932C264.283 70.7551 265.096 71.0727 265.938 71.2497C265.991 71.2616 266.037 71.2934 266.067 71.3385C266.098 71.3835 266.109 71.4385 266.101 71.4921C266.092 71.5457 266.062 71.5938 266.019 71.6265C265.976 71.6593 265.922 71.6741 265.868 71.668Z" fill="#0C0C0C"/>
</g>
<path d="M265.68 58.7547C264.881 58.3504 263.987 58.1696 263.093 58.2313C262.654 58.259 262.222 58.3525 261.81 58.5087C261.403 58.6614 261.017 58.865 260.661 59.1147C260.602 59.1527 260.559 59.2126 260.544 59.2815C260.528 59.3505 260.54 59.4229 260.577 59.4831C260.614 59.5433 260.673 59.5866 260.741 59.6035C260.81 59.6204 260.882 59.6096 260.943 59.5734L260.962 59.5627C261.288 59.3598 261.639 59.1989 262.006 59.0836C262.367 58.9679 262.744 58.9078 263.123 58.9053C263.873 58.8942 264.612 59.082 265.266 59.4494L265.291 59.464C265.337 59.4913 265.387 59.5093 265.44 59.5169C265.493 59.5245 265.547 59.5216 265.598 59.5083C265.65 59.495 265.698 59.4716 265.741 59.4395C265.784 59.4073 265.819 59.3671 265.846 59.321C265.873 59.2749 265.891 59.224 265.898 59.1711C265.905 59.1181 265.902 59.0643 265.888 59.0127C265.875 58.961 265.851 58.9126 265.819 58.8702C265.786 58.8277 265.746 58.7921 265.7 58.7654L265.68 58.7547Z" fill="#0C0C0C"/>
<path d="M271.66 60.3744C272.386 60.1876 273.149 60.1964 273.871 60.3999C274.236 60.5002 274.585 60.6553 274.905 60.8599C275.229 61.0659 275.527 61.3117 275.79 61.5919L275.805 61.6064C275.855 61.6548 275.921 61.6821 275.991 61.6825C276.06 61.6829 276.127 61.6565 276.177 61.6087C276.228 61.5609 276.258 61.4955 276.261 61.4261C276.264 61.3567 276.241 61.2886 276.196 61.2361C275.915 60.9032 275.595 60.607 275.241 60.3546C274.883 60.0979 274.489 59.8963 274.072 59.7564C273.224 59.4663 272.314 59.4104 271.438 59.5945C271.386 59.6059 271.337 59.6273 271.293 59.6577C271.25 59.688 271.212 59.7267 271.184 59.7714C271.126 59.8618 271.106 59.9716 271.129 60.0765C271.152 60.1815 271.215 60.2731 271.305 60.3311C271.396 60.3892 271.505 60.4089 271.61 60.386L271.631 60.3808L271.66 60.3744Z" fill="#0C0C0C"/>
<path d="M264.588 73.6287C266.944 74.2184 269.428 74.0047 271.649 73.0214C271.726 72.9878 271.811 72.9768 271.894 72.9898C271.976 73.0027 272.054 73.039 272.117 73.0945C272.18 73.15 272.226 73.2223 272.25 73.303C272.274 73.3837 272.274 73.4695 272.251 73.5504C271.838 74.933 270.674 77.4026 267.66 77.198C265.714 77.0666 264.596 75.3486 264.074 74.2467C264.038 74.1703 264.025 74.0851 264.035 74.0012C264.046 73.9173 264.08 73.8382 264.134 73.7733C264.188 73.7083 264.26 73.6602 264.34 73.6346C264.421 73.6089 264.507 73.6069 264.588 73.6287Z" fill="white"/>
<path d="M273.935 46.909C275.06 44.2617 274.517 41.4944 272.722 40.7282C270.927 39.962 268.56 41.487 267.434 44.1343C266.309 46.7816 266.852 49.5489 268.647 50.3151C270.442 51.0813 272.809 49.5563 273.935 46.909Z" fill="#0C0C0C"/>
<path d="M276.649 101.892C287.663 101.372 288.126 92.005 288.126 92.005C288.126 92.005 293.584 92.3585 297.212 92.8502C303.151 93.6553 307.069 95.6734 310.187 98.7976C313.088 101.704 314.853 104.849 312.985 124.925C311.632 139.462 312.584 171.437 312.584 171.437H245.467C245.467 171.437 240.781 125.244 240.225 118.7C239.164 106.208 236.169 103.45 242.238 97.0149C246.64 92.3482 258.004 92.005 262.578 92.0057C262.652 92.0057 261.651 102.601 276.649 101.892Z" fill="#367CFF"/>
<path d="M240.066 99.9081L222.714 136.771L188.493 110.984L174.901 129.095L220.214 163.24C220.62 163.542 221.043 163.819 221.483 164.069C222.777 164.795 224.202 165.26 225.676 165.435C227.15 165.61 228.644 165.492 230.072 165.089C231.501 164.685 232.836 164.004 234.001 163.084C235.167 162.163 236.14 161.022 236.866 159.724L237.062 159.374L263.536 112.024L240.066 99.9081Z" fill="#367CFF"/>
<path d="M315.159 171.761H9.51288C9.4272 171.761 9.34503 171.727 9.28444 171.666C9.22386 171.605 9.18982 171.523 9.18982 171.437C9.18982 171.351 9.22386 171.269 9.28444 171.208C9.34503 171.147 9.4272 171.113 9.51288 171.113H315.159C315.245 171.113 315.327 171.147 315.388 171.208C315.448 171.269 315.482 171.351 315.482 171.437C315.482 171.523 315.448 171.605 315.388 171.666C315.327 171.727 315.245 171.761 315.159 171.761Z" fill="#292A2E"/>
<path d="M248.679 123.286H85.0076V179.345H248.679V123.286Z" fill="white"/>
<path d="M248.84 179.508H84.8465V123.125H248.84V179.508ZM85.1695 179.184H248.517V123.448H85.1695V179.184Z" fill="#0C0C0C"/>
<path d="M76.9262 140.419L87.0294 135.898C87.2514 135.798 87.4917 135.747 87.7348 135.745C87.9779 135.744 88.2186 135.794 88.4416 135.891C88.6646 135.988 88.8649 136.131 89.0299 136.31C89.1949 136.489 89.3208 136.7 89.3998 136.93C89.5324 137.36 89.5009 137.824 89.3115 138.232C89.1221 138.64 88.7883 138.963 88.3747 139.139L86.2082 140.11L94.4176 140.194C95.3306 140.188 96.4549 140.765 96.3948 141.791C96.3974 142.188 96.2658 142.574 96.0215 142.886C95.7772 143.198 95.4346 143.418 95.0495 143.509C95.0518 143.518 95.0531 143.527 95.0534 143.536C95.0525 143.542 95.0511 143.549 95.0492 143.555L96.4571 143.545C96.7177 143.544 96.9753 143.6 97.2113 143.711C97.4473 143.822 97.6557 143.984 97.8213 144.185C97.9869 144.387 98.1056 144.623 98.1687 144.876C98.2318 145.129 98.2378 145.394 98.1862 145.649C98.0964 146.051 97.8717 146.41 97.5496 146.665C97.2276 146.921 96.8278 147.057 96.4171 147.053L95.8181 147.057C95.8102 147.074 95.7992 147.09 95.7858 147.104C96.1911 147.195 96.5508 147.428 96.8007 147.76C97.0505 148.093 97.1741 148.504 97.1494 148.919C97.1094 149.373 96.8999 149.796 96.5628 150.102C96.2257 150.408 95.7858 150.575 95.3309 150.57L93.8429 150.581C93.8638 150.596 93.881 150.615 93.8931 150.637C93.9052 150.66 93.9119 150.685 93.9127 150.711C93.9113 150.741 93.9012 150.771 93.8836 150.796C94.2221 150.977 94.4917 151.265 94.6509 151.616C94.8101 151.966 94.85 152.359 94.7646 152.734C94.6668 153.126 94.4398 153.474 94.1204 153.72C93.801 153.967 93.4078 154.099 93.0045 154.094L80.4502 154.183C78.6941 154.196 76.9742 153.683 75.511 152.709C74.0478 151.736 72.908 150.347 72.2376 148.721C71.6595 147.318 71.65 145.745 72.211 144.336C72.7721 142.926 73.8594 141.792 75.2421 141.173L76.9262 140.419Z" fill="#E98862"/>
<g opacity="0.2">
<path opacity="0.2" d="M86.9232 143.464C86.9238 143.507 86.9411 143.547 86.9713 143.577C87.0015 143.607 87.0423 143.624 87.0847 143.624L94.8919 143.694C94.9347 143.694 94.976 143.678 95.0065 143.648C95.0371 143.618 95.0545 143.577 95.0549 143.534C95.0553 143.491 95.0386 143.449 95.0086 143.419C94.9786 143.388 94.9376 143.371 94.8948 143.37L87.0876 143.3C87.0448 143.3 87.0037 143.317 86.9734 143.347C86.9431 143.378 86.9261 143.419 86.9261 143.462L86.9232 143.464Z" fill="#0C0C0C"/>
</g>
<g opacity="0.2">
<path opacity="0.2" d="M86.7972 146.915C86.7978 146.958 86.8151 146.998 86.8453 147.028C86.8755 147.058 86.9163 147.075 86.9587 147.075L95.6715 147.153C95.7143 147.153 95.7554 147.136 95.7857 147.106C95.816 147.075 95.833 147.034 95.833 146.991C95.8315 146.949 95.8141 146.909 95.7841 146.879C95.7541 146.849 95.7138 146.831 95.6715 146.83L86.9587 146.751C86.9374 146.751 86.9162 146.755 86.8964 146.763C86.8766 146.771 86.8586 146.783 86.8434 146.798C86.8283 146.813 86.8162 146.831 86.808 146.85C86.7998 146.87 86.7956 146.891 86.7956 146.913L86.7972 146.915Z" fill="#0C0C0C"/>
</g>
<g opacity="0.2">
<path opacity="0.2" d="M86.6392 150.649C86.6398 150.691 86.6571 150.732 86.6873 150.762C86.7176 150.792 86.7583 150.808 86.8008 150.808L93.7508 150.871C93.7937 150.872 93.8349 150.855 93.8655 150.825C93.896 150.795 93.9134 150.754 93.9138 150.711C93.9142 150.668 93.8976 150.627 93.8675 150.596C93.8375 150.565 93.7966 150.548 93.7537 150.548L86.8037 150.485C86.7608 150.485 86.7197 150.502 86.6894 150.532C86.6591 150.562 86.6421 150.604 86.6421 150.647L86.6392 150.649Z" fill="#0C0C0C"/>
</g>
<path d="M79.8179 158.445L23.8026 171.204C21.9418 171.407 20.0593 171.175 18.3029 170.527C16.5465 169.878 14.964 168.831 13.6795 167.466C12.395 166.102 11.4435 164.458 10.8996 162.663C10.3557 160.869 10.2342 158.972 10.5447 157.122L16.9549 105.457C17.4881 102.282 19.258 99.449 21.8755 97.5817C24.493 95.7144 27.7436 94.9654 30.9122 95.4996C34.0807 96.0338 36.9078 97.8074 38.7713 100.43C40.6348 103.053 41.3823 106.31 40.8492 109.485L37.7623 146.465L76.68 137.64L79.8179 158.445Z" fill="#367CFF"/>
<path d="M29.8869 147.918C29.8464 147.918 29.8074 147.902 29.7778 147.875C29.7482 147.847 29.7302 147.809 29.7272 147.768C29.7242 147.728 29.7366 147.688 29.7618 147.656C29.787 147.624 29.8233 147.603 29.8634 147.597L37.6689 145.927C37.6899 145.923 37.7114 145.924 37.7321 145.929C37.7528 145.934 37.7722 145.943 37.7893 145.956C37.8064 145.968 37.8208 145.984 37.8317 146.003C37.8425 146.021 37.8496 146.041 37.8524 146.062C37.8587 146.105 37.848 146.148 37.8225 146.183C37.7971 146.217 37.7591 146.24 37.7168 146.246L29.9112 147.916C29.9032 147.918 29.8951 147.918 29.8869 147.918Z" fill="#0C0C0C"/>
<path d="M25.4832 171.437C25.4404 171.44 25.3982 171.425 25.3659 171.397C25.3337 171.368 25.314 171.328 25.3112 171.285C25.3084 171.243 25.3228 171.2 25.3511 171.168C25.3794 171.136 25.4194 171.116 25.4622 171.113L79.4664 158.368L76.4064 137.877L37.7209 146.245C37.6959 146.248 37.6705 146.245 37.6467 146.237C37.6229 146.228 37.6013 146.215 37.5836 146.197C37.566 146.179 37.5529 146.156 37.5454 146.132C37.5379 146.108 37.5361 146.082 37.5403 146.057L39.7104 124.928C39.7136 124.907 39.721 124.887 39.7322 124.869C39.7434 124.85 39.7581 124.835 39.7754 124.822C39.7928 124.81 39.8124 124.801 39.8332 124.797C39.854 124.792 39.8755 124.791 39.8965 124.795C39.9387 124.802 39.9764 124.826 40.0012 124.861C40.0261 124.896 40.036 124.939 40.0289 124.982L37.8967 145.894L76.4816 137.519C76.5024 137.514 76.5241 137.512 76.5455 137.515C76.5668 137.518 76.5874 137.525 76.606 137.536C76.6246 137.547 76.6408 137.561 76.6537 137.578C76.6666 137.596 76.676 137.615 76.6813 137.636L79.8192 158.443C79.8291 158.484 79.8228 158.527 79.8015 158.563C79.7802 158.599 79.7457 158.626 79.7052 158.637L25.5042 171.436C25.4973 171.436 25.4902 171.437 25.4832 171.437Z" fill="#0C0C0C"/>
<path d="M253.724 150.131L243.621 145.609C243.399 145.51 243.159 145.458 242.915 145.457C242.672 145.456 242.432 145.505 242.209 145.603C241.986 145.7 241.785 145.842 241.621 146.021C241.456 146.2 241.33 146.412 241.251 146.642C241.118 147.072 241.149 147.536 241.339 147.944C241.528 148.352 241.862 148.675 242.276 148.85L244.442 149.821L236.233 149.906C235.32 149.899 234.195 150.477 234.256 151.503C234.253 151.9 234.385 152.285 234.629 152.597C234.873 152.91 235.216 153.129 235.601 153.221C235.599 153.23 235.597 153.238 235.597 153.247C235.598 153.254 235.599 153.261 235.601 153.267L234.193 153.257C233.933 153.255 233.675 153.312 233.439 153.422C233.203 153.533 232.995 153.695 232.829 153.897C232.663 154.098 232.545 154.334 232.481 154.588C232.418 154.841 232.412 155.105 232.464 155.361C232.554 155.763 232.779 156.121 233.101 156.377C233.423 156.632 233.822 156.769 234.233 156.764L234.832 156.769C234.84 156.786 234.851 156.802 234.865 156.816C234.459 156.907 234.1 157.14 233.85 157.472C233.6 157.805 233.476 158.216 233.501 158.631C233.541 159.085 233.751 159.507 234.088 159.813C234.425 160.119 234.865 160.287 235.32 160.282L236.808 160.293C236.787 160.307 236.77 160.327 236.758 160.349C236.745 160.372 236.739 160.397 236.738 160.422C236.739 160.453 236.749 160.482 236.767 160.507C236.428 160.689 236.159 160.977 236 161.327C235.841 161.678 235.801 162.071 235.886 162.446C235.984 162.838 236.211 163.185 236.53 163.432C236.85 163.679 237.243 163.81 237.646 163.805L250.201 163.895C251.957 163.908 253.677 163.394 255.14 162.421C256.603 161.447 257.743 160.058 258.413 158.432C258.991 157.029 259.001 155.456 258.44 154.047C257.879 152.637 256.791 151.502 255.409 150.883L253.724 150.131Z" fill="#E98862"/>
<g opacity="0.2">
<path opacity="0.2" d="M243.727 153.176C243.726 153.218 243.709 153.259 243.679 153.289C243.649 153.319 243.608 153.336 243.565 153.336L235.758 153.406C235.737 153.406 235.716 153.402 235.696 153.394C235.677 153.386 235.659 153.374 235.644 153.359C235.629 153.344 235.616 153.327 235.608 153.307C235.6 153.288 235.596 153.267 235.595 153.245C235.595 153.224 235.599 153.203 235.607 153.183C235.615 153.164 235.627 153.146 235.642 153.13C235.656 153.115 235.674 153.103 235.694 153.095C235.713 153.087 235.734 153.082 235.755 153.082L243.563 153.011C243.605 153.011 243.646 153.029 243.677 153.059C243.707 153.089 243.724 153.13 243.724 153.173L243.727 153.176Z" fill="#0C0C0C"/>
</g>
<g opacity="0.2">
<path opacity="0.2" d="M243.853 156.626C243.852 156.669 243.835 156.709 243.806 156.739C243.776 156.769 243.735 156.786 243.693 156.786L234.98 156.865C234.937 156.865 234.896 156.848 234.866 156.817C234.836 156.787 234.819 156.746 234.819 156.703C234.82 156.66 234.837 156.62 234.867 156.59C234.897 156.56 234.938 156.542 234.98 156.541L243.693 156.462C243.736 156.462 243.777 156.479 243.807 156.51C243.837 156.54 243.854 156.581 243.854 156.624L243.853 156.626Z" fill="#0C0C0C"/>
</g>
<g opacity="0.2">
<path opacity="0.2" d="M244.011 160.36C244.011 160.403 243.993 160.443 243.963 160.473C243.933 160.503 243.892 160.52 243.85 160.52L236.9 160.583C236.878 160.583 236.857 160.579 236.838 160.571C236.818 160.563 236.8 160.551 236.785 160.536C236.77 160.521 236.758 160.504 236.75 160.484C236.741 160.465 236.737 160.444 236.737 160.422C236.736 160.401 236.74 160.38 236.748 160.36C236.756 160.341 236.768 160.323 236.783 160.307C236.798 160.292 236.816 160.28 236.835 160.272C236.855 160.264 236.876 160.259 236.897 160.259L243.847 160.196C243.89 160.196 243.931 160.213 243.961 160.244C243.991 160.274 244.008 160.315 244.008 160.358L244.011 160.36Z" fill="#0C0C0C"/>
</g>
<path d="M254.063 168.157L306.847 171.204C308.708 171.407 310.591 171.175 312.347 170.527C314.104 169.878 315.686 168.831 316.971 167.467C318.255 166.102 319.207 164.458 319.75 162.664C320.294 160.869 320.416 158.972 320.105 157.123L313.696 105.455C313.432 103.883 312.862 102.379 312.018 101.027C311.173 99.6762 310.072 98.5049 308.776 97.5803C307.48 96.6557 306.015 95.9959 304.464 95.6387C302.914 95.2814 301.308 95.2337 299.739 95.4982C298.17 95.7627 296.669 96.3343 295.32 97.1803C293.972 98.0263 292.803 99.1301 291.88 100.429C290.957 101.727 290.299 103.196 289.942 104.749C289.586 106.303 289.538 107.912 289.802 109.484L292.889 148.73L254.294 147.35L254.063 168.157Z" fill="#367CFF"/>
<path d="M300.763 148.566C300.804 148.566 300.843 148.55 300.872 148.522C300.902 148.495 300.92 148.457 300.923 148.416C300.926 148.375 300.914 148.335 300.889 148.303C300.863 148.272 300.827 148.25 300.787 148.244L292.981 148.193C292.96 148.189 292.939 148.19 292.918 148.195C292.898 148.2 292.878 148.209 292.861 148.222C292.844 148.234 292.829 148.25 292.818 148.269C292.808 148.287 292.801 148.307 292.798 148.329C292.791 148.371 292.802 148.414 292.828 148.449C292.853 148.483 292.891 148.506 292.934 148.512L300.739 148.564C300.747 148.565 300.755 148.566 300.763 148.566Z" fill="#0C0C0C"/>
<path d="M305.168 171.437C305.21 171.44 305.253 171.425 305.285 171.397C305.317 171.368 305.337 171.328 305.339 171.285C305.342 171.243 305.328 171.2 305.299 171.168C305.271 171.136 305.231 171.116 305.188 171.113L254.414 168.081L254.566 147.59L292.929 148.512C292.954 148.515 292.979 148.513 293.003 148.504C293.027 148.496 293.048 148.482 293.066 148.464C293.083 148.446 293.097 148.424 293.104 148.4C293.112 148.375 293.113 148.35 293.109 148.325L290.939 124.929C290.936 124.908 290.929 124.888 290.918 124.87C290.906 124.852 290.892 124.836 290.874 124.824C290.857 124.811 290.837 124.803 290.817 124.798C290.796 124.793 290.774 124.793 290.753 124.797C290.732 124.8 290.712 124.808 290.694 124.819C290.676 124.83 290.661 124.845 290.648 124.862C290.636 124.88 290.627 124.899 290.622 124.92C290.618 124.941 290.617 124.962 290.621 124.983L292.754 148.162L254.493 147.232C254.472 147.227 254.45 147.225 254.429 147.228C254.407 147.231 254.387 147.238 254.368 147.249C254.35 147.26 254.333 147.274 254.32 147.291C254.308 147.309 254.298 147.328 254.293 147.349L254.062 168.156C254.052 168.197 254.059 168.24 254.08 168.276C254.101 168.312 254.136 168.339 254.176 168.35L305.145 171.434C305.153 171.435 305.16 171.436 305.168 171.437Z" fill="#0C0C0C"/>
<path d="M123.811 159.967H119.521L117.114 150.614C117.025 150.281 116.873 149.593 116.659 148.549C116.444 147.506 116.321 146.806 116.288 146.449C116.239 146.887 116.118 147.591 115.923 148.561C115.728 149.532 115.579 150.224 115.474 150.638L113.079 159.967H108.801L104.267 142.162H107.974L110.247 151.881C110.644 153.676 110.932 155.23 111.11 156.546C111.159 156.083 111.27 155.366 111.444 154.396C111.619 153.426 111.783 152.673 111.937 152.137L114.526 142.162H118.087L120.675 152.137C120.789 152.584 120.93 153.266 121.101 154.183C121.271 155.1 121.4 155.888 121.489 156.546C121.57 155.913 121.699 155.123 121.876 154.177C122.054 153.231 122.215 152.466 122.361 151.882L124.622 142.163H128.329L123.811 159.967Z" fill="#0CBC8B"/>
<path d="M140.803 159.966H130.569V142.161H140.803V145.255H134.337V149.164H140.353V152.256H134.337V156.848H140.803V159.966Z" fill="#0CBC8B"/>
<path d="M144.51 159.966V142.161H148.277V156.849H155.485V159.967L144.51 159.966Z" fill="#0CBC8B"/>
<path d="M166.12 145.047C165.481 145.018 164.845 145.149 164.27 145.428C163.694 145.708 163.198 146.127 162.825 146.648C162.047 147.716 161.658 149.204 161.658 151.112C161.658 155.083 163.145 157.068 166.119 157.068C167.671 157.008 169.203 156.691 170.653 156.13V159.296C169.101 159.923 167.44 160.233 165.767 160.209C163.182 160.209 161.205 159.424 159.835 157.853C158.465 156.282 157.781 154.026 157.781 151.087C157.744 149.41 158.089 147.746 158.79 146.222C159.411 144.885 160.422 143.769 161.689 143.019C163.038 142.253 164.569 141.868 166.119 141.904C167.925 141.924 169.703 142.352 171.32 143.159L170.104 146.228C169.451 145.916 168.782 145.639 168.099 145.4C167.464 145.171 166.795 145.052 166.12 145.047Z" fill="#0CBC8B"/>
<path d="M190.562 151.039C190.562 153.986 189.833 156.251 188.374 157.834C186.915 159.418 184.825 160.21 182.102 160.209C179.38 160.209 177.29 159.418 175.831 157.834C174.372 156.251 173.643 153.978 173.643 151.014C173.643 148.051 174.374 145.787 175.837 144.225C177.3 142.662 179.396 141.88 182.127 141.88C184.857 141.88 186.946 142.668 188.392 144.243C189.839 145.819 190.562 148.084 190.562 151.039ZM177.593 151.039C177.593 153.028 177.97 154.526 178.724 155.533C179.478 156.539 180.604 157.043 182.103 157.043C185.109 157.043 186.612 155.041 186.612 151.039C186.612 147.028 185.117 145.022 182.127 145.022C180.628 145.022 179.497 145.528 178.735 146.539C177.972 147.55 177.592 149.05 177.593 151.039Z" fill="#0CBC8B"/>
<path d="M201.768 159.966L197.49 145.997H197.38C197.534 148.839 197.611 150.734 197.611 151.684V159.966H194.244V142.161H199.374L203.579 155.777H203.652L208.113 142.161H213.242V159.966H209.729V151.538C209.729 151.14 209.735 150.682 209.747 150.162C209.759 149.642 209.814 148.262 209.911 146.021H209.802L205.22 159.966H201.768Z" fill="#0CBC8B"/>
<path d="M227.948 159.966H217.714V142.161H227.948V145.255H221.482V149.164H227.499V152.256H221.482V156.848H227.948V159.966Z" fill="#0CBC8B"/>
</svg>
