<svg width="60" height="60" viewBox="0 0 60 60" fill="none" xmlns="http://www.w3.org/2000/svg">
<path d="M0 13.3333C0 5.96954 5.96954 0 13.3333 0H46.6667C54.0305 0 60 5.96954 60 13.3333V46.6667C60 54.0305 54.0305 60 46.6667 60H13.3333C5.96954 60 0 54.0305 0 46.6667V13.3333Z" fill="#475BD8"/>
<path d="M23.403 19.0151V34.2282C23.3924 36.3269 22.4549 37.4349 20.7503 37.4349C19.1417 37.4349 18.0976 36.4335 18.0657 34.697H13.474C13.4527 39.0542 16.5635 41.1316 20.516 41.1316C24.9371 41.1316 27.952 38.4576 27.9627 34.2282V19.0151H23.403Z" fill="white"/>
<path d="M31.5766 40.8333H36.1895V31.8205H45.0638V28.0173H36.1895V22.8184H46.0226V19.0151H31.5766V40.8333Z" fill="white"/>
</svg>
