<svg width="90" height="90" viewBox="0 0 90 90" fill="none" xmlns="http://www.w3.org/2000/svg">
<path d="M0 20C0 8.9543 8.95431 0 20 0H70C81.0457 0 90 8.95431 90 20V70C90 81.0457 81.0457 90 70 90H20C8.9543 90 0 81.0457 0 70V20Z" fill="white"/>
<path d="M35.1045 28.5227V51.3423C35.0885 54.4904 33.6823 56.1523 31.1255 56.1523C28.7125 56.1523 27.1464 54.6502 27.0985 52.0454H20.211C20.1791 58.5813 24.8453 61.6974 30.7739 61.6974C37.4056 61.6974 41.928 57.6864 41.944 51.3423V28.5227H35.1045Z" fill="#475BD8"/>
<path d="M47.3649 61.25H54.2843V47.7308H67.5957V42.0259H54.2843V34.2276H69.0339V28.5227H47.3649V61.25Z" fill="#475BD8"/>
</svg>
